<?xml version="1.0" standalone="no"?>
<!DOCTYPE svg PUBLIC "-//W3C//DTD SVG 20010904//EN"
 "http://www.w3.org/TR/2001/REC-SVG-20010904/DTD/svg10.dtd">
<svg version="1.0" xmlns="http://www.w3.org/2000/svg"
 width="1680.000000pt" height="450.000000pt" viewBox="0 0 1680.000000 450.000000"
 preserveAspectRatio="xMidYMid meet">

<g transform="translate(0.000000,450.000000) scale(0.100000,-0.100000)"
fill="#000000" stroke="none">
<path d="M9505 3980 c-13 -5 -14 -9 -5 -9 8 0 24 4 35 9 13 5 14 9 5 9 -8 0
-24 -4 -35 -9z"/>
<path d="M8938 3773 c-20 -5 -24 -18 -9 -28 6 -3 15 4 21 15 6 11 9 19 8 19
-2 -1 -11 -3 -20 -6z"/>
<path d="M9221 3674 c18 -41 27 -50 22 -20 -3 14 -12 31 -20 37 -12 11 -12 8
-2 -17z"/>
<path d="M9305 3659 c-11 -17 1 -21 15 -4 8 9 8 15 2 15 -6 0 -14 -5 -17 -11z"/>
<path d="M9270 3619 c0 -5 5 -7 10 -4 6 3 10 8 10 11 0 2 -4 4 -10 4 -5 0 -10
-5 -10 -11z"/>
<path d="M8833 3403 c11 -3 16 -11 13 -19 -3 -9 1 -14 14 -14 11 0 20 6 20 14
0 15 -22 27 -48 25 -14 -1 -14 -2 1 -6z"/>
<path d="M9180 3260 c0 -11 2 -20 4 -20 2 0 6 9 9 20 3 11 1 20 -4 20 -5 0 -9
-9 -9 -20z"/>
<path d="M9102 3220 c0 -14 2 -19 5 -12 2 6 2 18 0 25 -3 6 -5 1 -5 -13z"/>
<path d="M8430 3210 c-12 -8 -11 -10 8 -10 12 0 22 5 22 10 0 13 -11 13 -30 0z"/>
<path d="M12339 3193 c0 -4 0 -80 1 -168 0 -88 -3 -181 -8 -207 -9 -45 -3 -58
24 -58 9 0 4 429 -6 435 -5 3 -10 3 -11 -2z"/>
<path d="M9200 3175 c-7 -9 -8 -15 -2 -15 5 0 12 7 16 15 3 8 4 15 2 15 -2 0
-9 -7 -16 -15z"/>
<path d="M8910 3166 c0 -9 5 -16 10 -16 6 0 10 4 10 9 0 6 -4 13 -10 16 -5 3
-10 -1 -10 -9z"/>
<path d="M14138 3005 c-2 -144 0 -176 11 -180 8 -3 17 -2 20 2 3 4 4 85 1 178
-4 121 -8 171 -17 172 -9 2 -13 -42 -15 -172z"/>
<path d="M8280 3160 c0 -5 5 -10 11 -10 5 0 7 5 4 10 -3 6 -8 10 -11 10 -2 0
-4 -4 -4 -10z"/>
<path d="M9220 3140 c0 -5 7 -10 15 -10 8 0 15 5 15 10 0 6 -7 10 -15 10 -8 0
-15 -4 -15 -10z"/>
<path d="M9273 3143 c9 -2 25 -2 35 0 9 3 1 5 -18 5 -19 0 -27 -2 -17 -5z"/>
<path d="M8630 3119 c0 -5 5 -7 10 -4 6 3 10 8 10 11 0 2 -4 4 -10 4 -5 0 -10
-5 -10 -11z"/>
<path d="M8650 3060 c-9 -6 -10 -10 -3 -10 6 0 15 5 18 10 8 12 4 12 -15 0z"/>
<path d="M8694 2986 c3 -14 2 -28 -4 -31 -5 -3 -10 2 -10 11 0 10 -3 14 -6 11
-13 -13 -12 -94 2 -136 25 -74 31 -78 38 -26 4 26 5 49 2 53 -3 3 -6 -3 -6
-12 0 -27 -23 -13 -31 18 -6 23 -5 25 7 15 16 -13 16 -14 19 64 1 31 -3 57 -8
57 -5 0 -6 -11 -3 -24z"/>
<path d="M9098 2955 c-3 -14 -1 -28 3 -31 5 -3 9 9 9 25 0 38 -6 40 -12 6z"/>
<path d="M8535 2960 c3 -5 8 -10 11 -10 2 0 4 5 4 10 0 6 -5 10 -11 10 -5 0
-7 -4 -4 -10z"/>
<path d="M8565 2940 c-3 -5 -2 -10 4 -10 5 0 13 5 16 10 3 6 2 10 -4 10 -5 0
-13 -4 -16 -10z"/>
<path d="M11390 2805 c0 -8 4 -15 10 -15 5 0 7 7 4 15 -4 8 -8 15 -10 15 -2 0
-4 -7 -4 -15z"/>
<path d="M9121 2784 c0 -11 3 -14 6 -6 3 7 2 16 -1 19 -3 4 -6 -2 -5 -13z"/>
<path d="M11431 2788 c-1 -12 -9 -16 -28 -15 -20 1 -27 -2 -25 -13 2 -8 8 -41
13 -72 5 -32 14 -69 19 -83 5 -14 7 -38 4 -54 -5 -21 0 -37 14 -56 29 -37 45
-116 37 -182 -4 -35 -3 -53 3 -49 17 10 25 78 25 208 0 100 -5 145 -23 210
-27 100 -38 131 -39 106z"/>
<path d="M15106 2791 c-4 -5 -3 -16 0 -25 4 -11 1 -16 -11 -16 -9 0 -13 -4
-10 -10 8 -12 -27 0 -36 12 -19 29 -67 -278 -49 -313 6 -10 10 -39 10 -66 0
-26 7 -61 15 -77 8 -15 15 -38 16 -50 0 -11 12 -43 27 -71 l27 -50 65 -7 c36
-4 108 -16 160 -27 52 -11 118 -23 145 -26 78 -10 386 -65 421 -75 41 -13 68
-12 82 2 9 9 12 7 12 -10 0 -12 5 -22 10 -22 20 0 117 -71 130 -94 16 -31 9
-388 -8 -430 l-12 -28 -38 74 c-39 79 -118 193 -140 202 -7 3 8 -24 34 -59 44
-63 134 -220 134 -236 0 -4 30 -61 67 -126 36 -65 71 -127 77 -138 29 -51 176
-275 181 -275 10 0 -29 76 -45 90 -4 3 -12 20 -19 38 -8 17 -17 32 -21 32 -7
0 -80 104 -80 115 0 2 -11 28 -24 57 -13 29 -34 87 -47 128 -22 70 -23 87 -19
260 7 313 12 276 -42 325 l-48 43 -6 108 c-4 60 -3 163 1 229 l7 120 44 43
c45 43 45 51 -1 30 -26 -12 -95 -134 -95 -169 0 -11 -4 -19 -10 -19 -5 0 -10
-15 -10 -33 0 -35 -39 -87 -65 -87 -28 0 -14 -30 24 -50 22 -11 23 -13 6 -22
-9 -6 -20 -6 -24 -2 -10 14 -46 16 -77 3 l-29 -12 25 -7 c37 -12 108 -11 115
0 11 17 25 0 25 -29 0 -25 -3 -28 -25 -23 -14 2 -31 -1 -39 -7 -16 -13 -57 -9
-146 17 -30 8 -91 23 -135 32 -68 14 -80 20 -83 38 -4 23 -21 29 -38 12 -8 -8
-34 -7 -85 1 -104 16 -158 36 -181 65 -16 19 -23 22 -34 13 -11 -9 -24 -3 -64
27 -27 21 -50 42 -50 46 0 4 -7 8 -15 8 -17 0 -18 9 -17 160 1 79 7 129 18
159 10 26 17 77 18 127 1 78 -4 98 -18 75z"/>
<path d="M15060 2760 c0 -5 5 -10 10 -10 6 0 10 5 10 10 0 6 -4 10 -10 10 -5
0 -10 -4 -10 -10z"/>
<path d="M9131 2744 c0 -11 3 -14 6 -6 3 7 2 16 -1 19 -3 4 -6 -2 -5 -13z"/>
<path d="M12576 2627 c-16 -51 -31 -126 -34 -167 -2 -41 -8 -84 -12 -95 -4
-11 -4 -31 0 -45 4 -14 13 -55 20 -93 10 -58 10 -73 -4 -107 -21 -52 -20 -57
7 -66 12 -4 25 -11 28 -16 3 -4 43 0 90 11 46 11 156 29 244 40 88 11 185 27
215 36 30 8 82 15 115 15 46 0 56 3 47 12 -7 7 -12 22 -12 34 0 33 -19 39 -30
9 -11 -30 -53 -48 -95 -42 -16 2 -38 -1 -48 -7 -13 -8 -20 -8 -26 3 -8 12 -12
12 -26 -2 -22 -22 -38 -21 -60 3 -23 25 -35 25 -35 1 0 -16 -10 -19 -67 -23
-38 -3 -72 -1 -78 3 -17 16 -33 10 -28 -10 4 -17 -2 -21 -43 -27 -60 -9 -96
11 -106 58 -4 18 -12 108 -18 200 -5 92 -10 171 -11 175 -6 36 4 77 25 98 18
18 21 25 10 29 -8 3 -14 11 -14 18 0 7 -6 20 -13 30 -11 14 -17 3 -41 -75z"/>
<path d="M8580 2700 c0 -5 5 -10 10 -10 6 0 10 5 10 10 0 6 -4 10 -10 10 -5 0
-10 -4 -10 -10z"/>
<path d="M8741 2660 c0 -8 6 -24 14 -34 19 -25 19 -9 0 24 -8 14 -14 19 -14
10z"/>
<path d="M13903 2608 c1 -29 0 -84 -1 -123 -2 -38 2 -110 8 -160 11 -89 6
-144 -13 -156 -5 -4 0 -12 12 -18 18 -10 23 -8 41 21 11 18 20 39 20 46 0 6 5
12 11 12 7 0 10 12 7 33 -3 17 -2 41 2 52 4 11 3 26 -3 34 -7 7 -12 48 -13 90
-2 87 -37 221 -59 221 -9 0 -13 -14 -12 -52z"/>
<path d="M8710 2640 c-12 -7 -12 -10 3 -16 21 -8 29 -3 19 13 -5 8 -13 9 -22
3z"/>
<path d="M9167 2573 c-3 -5 -7 -37 -10 -73 -7 -73 -2 -63 11 23 9 55 8 66 -1
50z"/>
<path d="M8516 2545 c-3 -8 -1 -15 4 -15 13 0 22 18 11 24 -5 3 -11 -1 -15 -9z"/>
<path d="M9020 2534 c0 -13 18 -39 24 -34 2 3 -2 14 -10 24 -8 11 -14 16 -14
10z"/>
<path d="M8854 2438 c13 -24 45 -105 71 -180 26 -76 52 -138 56 -138 12 0 11
13 0 25 -5 6 -25 57 -45 115 -43 124 -86 220 -98 220 -5 0 2 -19 16 -42z"/>
<path d="M9035 2447 c-5 -18 -3 -33 4 -40 18 -18 25 0 14 35 l-10 33 -8 -28z"/>
<path d="M10421 2400 c7 -20 10 -104 7 -238 -4 -191 -6 -210 -26 -242 -12 -19
-26 -44 -31 -55 -17 -39 -22 -238 -10 -355 11 -108 15 -353 10 -620 -2 -63 0
-146 4 -185 11 -102 8 -103 -183 -106 l-153 -2 -42 -37 c-50 -45 -44 -64 7
-25 26 20 36 23 36 12 0 -10 15 -16 49 -21 27 -3 791 -6 1699 -6 1289 -1 1652
-3 1655 -13 4 -9 6 -9 6 1 1 17 362 17 379 0 9 -9 12 -9 12 1 0 11 21 13 108
8 59 -3 116 -9 127 -13 14 -5 10 4 -15 29 l-35 36 -775 3 c-426 2 -869 2 -985
0 -340 -4 -1827 7 -1849 14 -19 6 -19 15 -13 378 3 204 9 378 12 387 9 23 53
44 85 41 48 -5 42 15 -8 28 -26 7 -54 14 -63 16 -10 3 -25 32 -39 72 -18 55
-22 88 -21 186 1 72 6 128 13 144 18 36 87 86 155 112 167 64 498 126 718 136
168 7 157 3 184 79 13 36 21 69 17 72 -3 4 -6 -2 -6 -11 0 -10 -15 -33 -34
-52 -31 -31 -39 -34 -94 -34 -34 0 -64 -4 -67 -10 -9 -14 -35 -12 -35 3 0 6
-4 18 -9 26 -7 11 -16 8 -47 -17 -34 -28 -39 -29 -49 -15 -11 15 -18 15 -61 3
-27 -7 -53 -17 -58 -21 -15 -14 -36 -10 -36 5 0 27 -20 27 -42 2 -14 -16 -36
-27 -58 -29 -19 -2 -51 -11 -70 -19 -29 -13 -88 -31 -97 -29 -1 0 -15 -6 -29
-14 -21 -10 -32 -11 -48 -3 -15 8 -21 8 -24 -1 -2 -6 -12 -11 -23 -11 -12 0
-16 5 -13 15 4 8 -1 17 -10 21 -23 9 -20 24 5 24 11 0 17 -4 14 -10 -3 -5 1
-10 11 -10 14 0 16 7 11 36 -3 20 -14 42 -23 49 -12 8 -14 14 -5 19 6 4 9 12
6 17 -4 5 -2 9 3 9 14 0 2 43 -15 57 -8 6 -12 16 -9 21 3 5 -15 31 -39 58 -25
27 -48 62 -53 79 -5 16 -16 31 -25 33 -14 3 -15 -1 -6 -28z"/>
<path d="M9142 2362 c-14 -66 -15 -97 -3 -67 10 23 25 125 19 125 -2 0 -9 -26
-16 -58z"/>
<path d="M9115 2239 c-4 -17 -4 -91 0 -165 4 -77 4 -134 -1 -134 -5 0 -29 32
-53 70 -24 39 -51 70 -59 70 -12 0 -11 -5 5 -22 36 -40 124 -182 119 -194 -2
-6 0 -46 6 -90 5 -43 9 -103 9 -132 0 -32 4 -50 9 -47 6 3 10 19 10 34 0 15 6
33 13 40 10 10 9 12 -3 9 -11 -2 -16 14 -22 67 -10 85 -7 94 28 87 19 -3 25
-1 20 7 -4 6 -18 11 -30 11 -21 0 -24 6 -30 53 -3 28 -7 123 -8 210 -1 86 -3
157 -4 157 -1 0 -5 -14 -9 -31z"/>
<path d="M13632 2191 c-21 -28 -23 -29 -104 -28 -77 2 -82 3 -88 25 l-5 24
-24 -21 c-13 -12 -34 -21 -47 -21 -29 0 -54 -10 -54 -21 0 -4 55 -8 123 -8
183 0 352 -23 479 -65 109 -37 205 -47 238 -26 10 7 -6 10 -54 10 -62 0 -229
40 -246 59 -3 4 -23 8 -45 9 -22 2 -45 8 -52 14 -7 5 -22 7 -33 3 -12 -4 -33
-4 -47 0 -22 5 -24 9 -19 40 4 19 5 35 3 35 -2 0 -13 -13 -25 -29z"/>
<path d="M8650 2191 c0 -15 28 -33 47 -29 14 3 11 8 -14 21 -18 10 -33 13 -33
8z"/>
<path d="M14574 2139 c-17 -18 -16 -19 14 -19 37 0 47 12 22 27 -14 10 -21 8
-36 -8z"/>
<path d="M14358 2133 c7 -3 16 -2 19 1 4 3 -2 6 -13 5 -11 0 -14 -3 -6 -6z"/>
<path d="M14666 2133 c-10 -11 66 -35 123 -40 42 -4 52 -2 49 9 -3 7 -15 12
-28 10 -12 -1 -29 3 -36 9 -7 6 -22 8 -32 5 -11 -4 -31 -2 -45 3 -14 5 -28 7
-31 4z"/>
<path d="M8920 2122 c0 -5 11 -14 25 -20 14 -6 25 -10 25 -8 0 2 -11 11 -25
20 -14 9 -25 13 -25 8z"/>
<path d="M11770 2100 c-8 -4 -60 -11 -115 -14 -100 -8 -208 -26 -220 -38 -3
-3 78 -3 182 -1 206 6 336 -4 473 -38 102 -26 188 -62 196 -84 4 -8 2 -34 -4
-58 -6 -25 -7 -66 -3 -102 l8 -60 2 75 c2 121 44 180 153 215 19 6 20 8 6 12
-9 2 -37 -3 -63 -11 -55 -19 -55 -19 -55 -3 0 9 -16 13 -49 14 -74 1 -101 10
-101 33 0 23 0 23 -35 10 -19 -7 -33 -6 -48 2 -12 7 -30 11 -41 9 -10 -1 -29
0 -43 4 -19 4 -24 11 -20 25 6 24 6 24 -38 6 -18 -8 -36 -12 -39 -9 -3 3 -26
5 -52 5 -26 -1 -54 3 -63 7 -9 5 -23 6 -31 1z"/>
<path d="M14250 2106 c0 -2 7 -6 15 -10 8 -3 15 -1 15 4 0 6 -7 10 -15 10 -8
0 -15 -2 -15 -4z"/>
<path d="M14865 2100 c-3 -5 3 -10 14 -10 12 0 21 5 21 10 0 6 -6 10 -14 10
-8 0 -18 -4 -21 -10z"/>
<path d="M8896 2084 c-11 -8 -16 -14 -10 -14 13 0 39 18 34 24 -3 2 -14 -2
-24 -10z"/>
<path d="M9505 2075 c-39 -18 -11 -18 35 0 22 8 28 13 15 13 -11 0 -33 -6 -50
-13z"/>
<path d="M14420 2084 c0 -2 11 -9 24 -13 25 -10 118 -69 153 -98 11 -10 42
-53 68 -96 26 -43 50 -76 53 -73 3 3 -2 14 -10 23 -9 10 -28 42 -42 71 -32 63
-90 123 -148 153 -45 23 -98 41 -98 33z"/>
<path d="M14375 2060 c3 -5 12 -10 19 -10 8 0 30 -18 50 -40 20 -22 36 -34 36
-26 0 16 -80 86 -99 86 -7 0 -9 -4 -6 -10z"/>
<path d="M9470 1960 c0 -5 5 -10 11 -10 5 0 7 5 4 10 -3 6 -8 10 -11 10 -2 0
-4 -4 -4 -10z"/>
<path d="M14490 1923 c0 -14 29 -83 35 -83 3 0 -3 19 -12 43 -18 47 -23 55
-23 40z"/>
<path d="M14271 1910 c-5 -11 -12 -48 -16 -95 l-5 -50 15 50 c8 28 13 61 12
75 -2 14 -5 23 -6 20z"/>
<path d="M15795 1850 c3 -5 8 -10 11 -10 2 0 4 5 4 10 0 6 -5 10 -11 10 -5 0
-7 -4 -4 -10z"/>
<path d="M15820 1815 c0 -5 9 -21 20 -35 11 -14 20 -20 20 -15 0 6 -9 21 -20
35 -11 14 -20 21 -20 15z"/>
<path d="M14259 1733 c-11 -29 -4 -88 11 -98 5 -3 8 24 8 60 -1 36 -3 65 -5
65 -2 0 -8 -12 -14 -27z"/>
<path d="M14751 1743 c7 -12 15 -20 18 -17 3 2 -3 12 -13 22 -17 16 -18 16 -5
-5z"/>
<path d="M12283 1625 c0 -27 2 -38 4 -22 2 15 2 37 0 50 -2 12 -4 0 -4 -28z"/>
<path d="M14883 1570 c9 -14 26 -41 36 -60 11 -19 28 -46 38 -58 54 -71 58
-68 12 8 -28 47 -62 96 -77 110 l-26 25 17 -25z"/>
<path d="M9142 1518 c1 -29 -9 -106 -20 -172 -12 -65 -24 -153 -27 -195 -3
-42 -10 -128 -16 -191 -9 -112 -11 -183 -5 -245 6 -60 19 -115 27 -115 12 0
11 70 -2 187 -7 66 -7 104 0 122 6 14 13 96 16 181 3 85 13 198 21 250 22 132
29 230 16 230 -6 0 -10 -22 -10 -52z"/>
<path d="M14865 1541 c-3 -6 1 -11 9 -11 8 0 16 -10 18 -22 2 -12 9 -23 15
-25 10 -4 9 4 -1 28 -15 36 -30 47 -41 30z"/>
<path d="M12281 1515 c-1 -16 -7 -45 -14 -64 -17 -50 -78 -65 -202 -50 -76 10
-552 5 -563 -5 -3 -4 682 -16 828 -15 l125 1 -65 14 c-35 8 -70 20 -77 27 -7
7 -17 37 -22 67 -6 38 -9 46 -10 25z"/>
<path d="M13062 1409 c-249 -3 -457 -10 -462 -15 -5 -5 185 -8 468 -6 262 1
481 2 487 2 13 0 -13 24 -27 25 -7 0 -217 -2 -466 -6z"/>
<path d="M14886 1405 c-3 -8 0 -28 6 -43 l11 -27 8 28 c12 43 -10 81 -25 42z"/>
<path d="M10993 1394 c7 -8 368 -7 375 1 3 3 -82 5 -188 5 -106 0 -191 -3
-187 -6z"/>
<path d="M14927 1364 c-8 -8 1 -24 14 -24 5 0 9 7 9 15 0 15 -12 20 -23 9z"/>
<path d="M14980 1316 c0 -9 5 -16 10 -16 6 0 10 4 10 9 0 6 -4 13 -10 16 -5 3
-10 -1 -10 -9z"/>
<path d="M14997 1293 c-13 -12 -7 -33 8 -33 8 0 15 9 15 20 0 20 -11 26 -23
13z"/>
<path d="M15060 1160 c0 -5 5 -10 10 -10 6 0 10 5 10 10 0 6 -4 10 -10 10 -5
0 -10 -4 -10 -10z"/>
<path d="M16440 803 c11 -16 32 -45 46 -65 13 -21 29 -38 34 -38 16 0 11 19
-10 37 -11 10 -20 21 -20 25 0 12 -52 68 -62 68 -6 0 0 -12 12 -27z"/>
<path d="M16045 680 c-3 -6 1 -13 10 -16 19 -8 30 0 20 15 -8 14 -22 14 -30 1z"/>
<path d="M16586 625 c4 -8 12 -15 20 -15 19 0 18 16 -2 24 -22 9 -24 8 -18 -9z"/>
<path d="M14232 439 c2 -7 10 -15 17 -17 8 -3 12 1 9 9 -2 7 -10 15 -17 17 -8
3 -12 -1 -9 -9z"/>
<path d="M14318 413 c7 -3 16 -2 19 1 4 3 -2 6 -13 5 -11 0 -14 -3 -6 -6z"/>
<path d="M14351 406 c2 -2 22 -6 44 -9 28 -5 34 -4 20 3 -19 8 -73 14 -64 6z"/>
<path d="M15913 338 c29 -16 227 -33 377 -32 76 0 138 -4 142 -10 4 -6 19 -4
39 4 36 15 78 15 93 0 6 -6 -4 -9 -30 -7 -35 2 -39 0 -37 -20 2 -19 -2 -23
-25 -23 -29 0 -60 -15 -51 -25 3 -3 25 2 49 10 29 10 86 15 179 16 l136 1 -75
13 c-41 7 -97 24 -123 38 -47 25 -53 26 -200 22 -84 -2 -204 1 -267 6 -63 5
-140 11 -170 14 -42 3 -51 1 -37 -7z"/>
<path d="M16626 331 c-4 -5 -3 -17 0 -26 5 -13 8 -14 15 -3 5 7 9 19 9 26 0
14 -16 16 -24 3z"/>
<path d="M15337 311 c-45 -29 -43 -31 23 -31 l63 0 -23 25 c-27 29 -27 29 -63
6z"/>
<path d="M16035 180 c4 -6 11 -8 16 -5 14 9 11 15 -7 15 -8 0 -12 -5 -9 -10z"/>
</g>
</svg>
